<?xml version="1.0" encoding="utf-8"?>
<!-- Generator: Adobe Illustrator 15.1.0, SVG Export Plug-In . SVG Version: 6.00 Build 0)  -->
<!DOCTYPE svg PUBLIC "-//W3C//DTD SVG 1.1//EN" "http://www.w3.org/Graphics/SVG/1.1/DTD/svg11.dtd">
<svg version="1.1" id="Layer_1" xmlns="http://www.w3.org/2000/svg" xmlns:xlink="http://www.w3.org/1999/xlink" x="0px" y="0px"
	 width="664px" height="354px" viewBox="0 0 664 354" enable-background="new 0 0 664 354" xml:space="preserve">
<g>
	<rect x="33" y="111" fill="#DCDEE0" width="100" height="127"/>
	<rect x="33" y="111" fill="none" stroke="#85888D" stroke-width="2" width="100" height="127"/>
	<line fill="none" stroke="#000000" stroke-width="2" x1="46" y1="131" x2="120" y2="131"/>
	<line fill="none" stroke="#000000" stroke-width="2" x1="46" y1="137" x2="120" y2="137"/>
	<line fill="none" stroke="#000000" stroke-width="2" x1="46" y1="142" x2="120" y2="142"/>
	<line fill="none" stroke="#000000" stroke-width="2" x1="46" y1="154" x2="120" y2="154"/>
	<rect x="500" y="111" fill="#DCDEE0" width="100" height="127"/>
	<rect x="500" y="111" fill="none" stroke="#85888D" stroke-width="2" width="100" height="127"/>
	<line fill="none" stroke="#000000" stroke-width="2" x1="513" y1="131" x2="587" y2="131"/>
	<line fill="none" stroke="#000000" stroke-width="2" x1="513" y1="137" x2="587" y2="137"/>
	<line fill="none" stroke="#000000" stroke-width="2" x1="513" y1="142" x2="587" y2="142"/>
	<line fill="none" stroke="#000000" stroke-width="2" x1="513" y1="154" x2="587" y2="154"/>
	<rect x="255" y="23" fill="#DCDEE0" width="100" height="128"/>
	<rect x="255" y="23" fill="none" stroke="#85888D" stroke-width="2" width="100" height="128"/>
	<line fill="none" stroke="#000000" stroke-width="2" x1="268" y1="43" x2="342" y2="43"/>
	<line fill="none" stroke="#000000" stroke-width="2" x1="268" y1="49" x2="342" y2="49"/>
	<line fill="none" stroke="#000000" stroke-width="2" x1="268" y1="55" x2="342" y2="55"/>
	<line fill="none" stroke="#70BF41" stroke-width="2" x1="268" y1="67" x2="342" y2="67"/>
	<line fill="none" stroke="#70BF41" stroke-width="2" x1="157" y1="59" x2="231" y2="59"/>
	<line fill="none" stroke="#70BF41" stroke-width="2" x1="392.763" y1="59" x2="466.763" y2="59"/>

		<line fill="none" stroke="#70BF41" stroke-width="2" x1="461.52" y1="172.158" x2="535.52" y2="172.158"/>
	<polygon fill="#45BEEE" points="203.427,125.067 207.724,139.122 237.382,98.616 190.144,81.62 194.44,95.675 153.541,108.179 
	162.527,137.571 "/>
	<polygon fill="#45BEEE" points="437.427,238.712 441.724,252.767 471.382,212.261 424.144,195.265 428.44,209.319 387.541,221.824 
	396.527,251.216 "/>
	<rect x="255" y="203" fill="#DCDEE0" width="100" height="128"/>
	<rect x="255" y="203" fill="none" stroke="#85888D" stroke-width="2" width="100" height="128"/>
	<line fill="none" stroke="#000000" stroke-width="2" x1="268" y1="223" x2="342" y2="223"/>
	<line fill="none" stroke="#000000" stroke-width="2" x1="268" y1="229" x2="342" y2="229"/>
	<line fill="none" stroke="#000000" stroke-width="2" x1="268" y1="235" x2="342" y2="235"/>
	<line fill="none" stroke="#C82506" stroke-width="2" x1="268" y1="247" x2="342" y2="247"/>
	<polygon fill="#45BEEE" points="194.44,238.713 190.144,252.767 237.382,235.771 207.724,195.266 203.427,209.32 162.527,196.815 
	153.541,226.208 "/>
	<polygon fill="#45BEEE" points="428.44,125.068 424.144,139.121 471.382,122.125 441.724,81.621 437.427,95.675 396.527,83.17 
	387.541,112.563 "/>
	<line fill="none" stroke="#C82506" stroke-width="2" x1="268" y1="253" x2="342" y2="253"/>
	<line fill="none" stroke="#C82506" stroke-width="2" x1="158" y1="268" x2="231" y2="268"/>
	<line fill="none" stroke="#C82506" stroke-width="2" x1="158" y1="274" x2="231" y2="274"/>
	<line fill="none" stroke="#C82506" stroke-width="2" x1="393" y1="268" x2="466" y2="268"/>
	<line fill="none" stroke="#C82506" stroke-width="2" x1="393" y1="274" x2="466" y2="274"/>	
		<line fill="none" stroke="#C82506" stroke-width="2" x1="568.678" y1="180.189" x2="641.678" y2="180.189"/>

		<line fill="none" stroke="#C82506" stroke-width="2" x1="568.678" y1="186.189" x2="641.678" y2="186.189"/>
	<path d="M546.585,185.594l-0.043-1.123c-0.13-2.203,0.604-4.45,2.549-6.739c1.382-1.685,2.506-3.11,2.506-4.536
		c0-1.512-0.994-2.548-3.154-2.592c-1.425,0-3.153,0.519-4.276,1.296l-1.469-4.708c1.599-0.907,4.147-1.771,7.214-1.771
		c5.702,0,8.338,3.153,8.338,6.739c0,3.283-2.074,5.442-3.716,7.257c-1.555,1.771-2.246,3.456-2.202,5.399v0.778H546.585z
		 M545.462,191.598c0-2.332,1.599-3.931,3.845-3.931c2.333,0,3.845,1.599,3.888,3.931c0,2.246-1.512,3.932-3.888,3.932
		C547.018,195.529,545.462,193.844,545.462,191.598z"/>
</g>
</svg>
