<?xml version="1.0" encoding="UTF-8" standalone="no"?>
<!-- Generator: Adobe Illustrator 15.1.0, SVG Export Plug-In . SVG Version: 6.00 Build 0)  -->

<svg
   xmlns:dc="http://purl.org/dc/elements/1.1/"
   xmlns:cc="http://creativecommons.org/ns#"
   xmlns:rdf="http://www.w3.org/1999/02/22-rdf-syntax-ns#"
   xmlns:svg="http://www.w3.org/2000/svg"
   xmlns="http://www.w3.org/2000/svg"
   xmlns:sodipodi="http://sodipodi.sourceforge.net/DTD/sodipodi-0.dtd"
   xmlns:inkscape="http://www.inkscape.org/namespaces/inkscape"
   version="1.1"
   x="0px"
   y="0px"
   width="610"
   height="500"
   viewBox="0 0 610 500"
   enable-background="new 0 0 622 452"
   xml:space="preserve"
   id="svg2"
   inkscape:version="0.91 r13725"
   sodipodi:docname="git-freshly-made-github-repo.svg"><metadata
     id="metadata134"><rdf:RDF><cc:Work
         rdf:about=""><dc:format>image/svg+xml</dc:format><dc:type
           rdf:resource="http://purl.org/dc/dcmitype/StillImage" /><dc:title></dc:title></cc:Work></rdf:RDF></metadata><defs
     id="defs132" /><sodipodi:namedview
     pagecolor="#ffffff"
     bordercolor="#666666"
     borderopacity="1"
     objecttolerance="10"
     gridtolerance="10"
     guidetolerance="10"
     inkscape:pageopacity="0"
     inkscape:pageshadow="2"
     inkscape:window-width="1362"
     inkscape:window-height="729"
     id="namedview130"
     showgrid="false"
     fit-margin-top="0"
     fit-margin-left="0"
     fit-margin-right="0"
     fit-margin-bottom="0"
     inkscape:zoom="0.6957385"
     inkscape:cx="318.0608"
     inkscape:cy="263.49478"
     inkscape:window-x="0"
     inkscape:window-y="18"
     inkscape:window-maximized="0"
     inkscape:current-layer="svg2" /><g
     id="g3573"
     transform="translate(-4.1425018,-9)"><g
       id="g3564"><g
         id="g3490"
         transform="translate(0,250)"><rect
           id="rect3492"
           height="244"
           width="603.78497"
           stroke-miterlimit="10"
           y="12"
           x="7"
           style="fill:#ffffff;stroke:#000000;stroke-miterlimit:10" /></g><g
         id="g3494"
         transform="translate(0,250)"><path
           stroke-miterlimit="10"
           d="m 598,63 c 0,-8.284 -6.716,-15 -15,-15 l -385,0 c -8.284,0 -15,6.716 -15,15 l 0,167 c 0,8.284 6.716,15 15,15 l 385,0 c 8.284,0 15,-6.716 15,-15 l 0,-167 z"
           id="path3496"
           inkscape:connector-curvature="0"
           style="fill:#b5b5b5;stroke:#ffffff;stroke-miterlimit:10" /><rect
           x="197"
           y="59"
           width="70"
           height="28"
           id="rect3498"
           style="fill:none" /><text
           transform="translate(197,71.4199)"
           font-size="18"
           id="text3500"
           style="font-size:18px;font-family:Consolas">.git</text>
</g><text
         y="278.707"
         x="16"
         font-size="13.5"
         id="text3502"
         style="font-size:13.5px;font-family:Helvetica">https://github.com/vlad/planets.git</text>
</g><g
       id="g3504"><g
         id="Layer_6"><rect
           x="7"
           y="12"
           stroke-miterlimit="10"
           width="603.78497"
           height="244"
           id="rect5"
           style="fill:#ffffff;stroke:#000000;stroke-miterlimit:10" /></g><g
         id="g8"><path
           style="fill:#b5b5b5;stroke:#ffffff;stroke-miterlimit:10"
           inkscape:connector-curvature="0"
           id="path10"
           d="m 598,63 c 0,-8.284 -6.716,-15 -15,-15 l -385,0 c -8.284,0 -15,6.716 -15,15 l 0,167 c 0,8.284 6.716,15 15,15 l 385,0 c 8.284,0 15,-6.716 15,-15 l 0,-167 z"
           stroke-miterlimit="10" /><rect
           style="fill:none"
           id="rect12"
           height="28"
           width="70"
           y="59"
           x="197" /><text
           style="font-size:18px;font-family:Consolas"
           id="text14"
           font-size="18"
           transform="translate(197,71.4199)">.git</text>
</g><rect
         style="fill:none"
         id="rect16"
         height="24.448999"
         width="195.58501"
         y="19"
         x="16" /><text
         style="font-size:13.5px;font-family:Helvetica"
         id="text18"
         font-size="13.5"
         x="16"
         y="28.707001">~/vlad/planets</text>
<g
         id="Layer_3"><g
           id="g37"><linearGradient
             id="SVGID_1_"
             gradientUnits="userSpaceOnUse"
             x1="303.49899"
             y1="123.9863"
             x2="303.49899"
             y2="179.23489"><stop
               offset="0.0982"
               style="stop-color:#C4C4C4"
               id="stop40" /><stop
               offset="0.5326"
               style="stop-color:#686868"
               id="stop42" /><stop
               offset="1"
               style="stop-color:#000000"
               id="stop44" /></linearGradient><path
             stroke-miterlimit="10"
             d="m 253.453,178.205 c 0,-9.264 22.404,-16.777 50.047,-16.777 27.643,0 50.045,7.514 50.045,16.777 l 0,1.029 c 0,0 0,-2.115 0,-3.117 0,-1.007 0,-35.745 0,-35.745 l 0,0.394 c 0,-9.27 -22.402,-16.78 -50.045,-16.78 -27.643,0 -50.047,7.51 -50.047,16.78 l 0,-0.394 c 0,0 0,34.519 0,35.733 0,1.205 0,3.129 0,3.129 l 0,-1.029 z"
             id="path46"
             inkscape:connector-curvature="0"
             style="fill:url(#SVGID_1_);stroke:#231f20;stroke-miterlimit:10" /><g
             id="g48"><path
               stroke-miterlimit="10"
               d="m 353.545,140.373 c 0,0 0,34.738 0,35.745 0,1.002 0.355,3.117 0.355,3.117 0,9.27 -22.758,16.779 -50.4,16.779 -27.642,0 -50.4,-7.51 -50.4,-16.779 0,0 0.354,-1.924 0.354,-3.129 0,-1.214 0,-35.733 0,-35.733 0,9.274 22.404,16.785 50.047,16.785 27.643,0 50.044,-7.511 50.044,-16.785 z"
               id="path50"
               inkscape:connector-curvature="0"
               style="fill:#ffffff;stroke:#231f20;stroke-miterlimit:10" /></g></g><g
           id="g52"><polygon
             stroke-miterlimit="10"
             points="328.542,149.459 341.719,134.965 282.411,134.965 269.235,149.459 "
             id="polygon54"
             style="fill:#ffffff;stroke:#000000;stroke-miterlimit:10" /><line
             x1="282.41101"
             y1="140.894"
             x2="331.16501"
             y2="140.894"
             id="line56"
             style="fill:none;stroke:#70bf41;stroke-width:2" /></g></g><g
         id="Layer_4"><linearGradient
           id="SVGID_2_"
           gradientUnits="userSpaceOnUse"
           x1="537.17682"
           y1="57.660198"
           x2="537.17682"
           y2="112.9126"><stop
             offset="0.0982"
             style="stop-color:#C4C4C4"
             id="stop60" /><stop
             offset="0.5326"
             style="stop-color:#686868"
             id="stop62" /><stop
             offset="1"
             style="stop-color:#000000"
             id="stop64" /></linearGradient><path
           stroke-miterlimit="10"
           d="m 487.13,111.882 c 0,-9.268 22.407,-16.781 50.047,-16.781 27.641,0 50.047,7.513 50.047,16.781 l 0,1.03 c 0,0 0,-2.118 0,-3.121 0,-1.003 0,-35.739 0,-35.739 l 0,0.388 c 0,-9.268 -22.406,-16.781 -50.047,-16.781 -27.64,0 -50.047,7.513 -50.047,16.781 l 0,-0.388 c 0,0 0,34.519 0,35.728 0,1.209 0,3.132 0,3.132 l 0,-1.03 z"
           id="path66"
           inkscape:connector-curvature="0"
           style="fill:url(#SVGID_2_);stroke:#231f20;stroke-miterlimit:10" /><g
           id="g68"><path
             stroke-miterlimit="10"
             d="m 587.021,151.283 c 0,0 0,34.738 0,35.74 0,1.002 0.354,3.121 0.354,3.121 0,9.268 -22.76,16.779 -50.4,16.779 -27.64,0 -50.399,-7.512 -50.399,-16.779 0,0 0.353,-1.924 0.353,-3.133 0,-1.209 0,-35.729 0,-35.729 0,9.268 22.407,16.781 50.047,16.781 27.638,0.001 50.045,-7.512 50.045,-16.78 z"
             id="path70"
             inkscape:connector-curvature="0"
             style="fill:#ffffff;stroke:#231f20;stroke-miterlimit:10" /></g><g
           id="g72"><path
             stroke-miterlimit="10"
             d="m 587.021,112.601 c 0,0 0,34.736 0,35.739 0,1.002 0.354,3.121 0.354,3.121 0,9.268 -22.76,16.779 -50.4,16.779 -27.64,0 -50.399,-7.512 -50.399,-16.779 0,0 0.353,-1.923 0.353,-3.132 0,-1.209 0,-35.728 0,-35.728 0,9.268 22.407,16.78 50.047,16.78 27.638,0 50.045,-7.512 50.045,-16.78 z"
             id="path74"
             inkscape:connector-curvature="0"
             style="fill:#ffffff;stroke:#231f20;stroke-miterlimit:10" /></g><g
           id="g76"><path
             stroke-miterlimit="10"
             d="m 587.021,73.628 c 0,0 0,34.737 0,35.739 0,1.002 0.354,3.12 0.354,3.12 0,9.269 -22.76,16.781 -50.4,16.781 -27.64,0 -50.399,-7.513 -50.399,-16.781 0,0 0.353,-1.922 0.353,-3.131 0,-1.209 0,-35.728 0,-35.728 0,9.268 22.407,16.78 50.047,16.78 27.638,0.001 50.045,-7.512 50.045,-16.78 z"
             id="path78"
             inkscape:connector-curvature="0"
             style="fill:#ffffff;stroke:#231f20;stroke-miterlimit:10" /></g><g
           id="g80"><polygon
             stroke-miterlimit="10"
             points="560.039,80.875 573.216,66.381 513.908,66.381 500.732,80.875 "
             id="polygon82"
             style="fill:#ffffff;stroke:#000000;stroke-miterlimit:10" /><line
             x1="513.90802"
             y1="72.310997"
             x2="562.66199"
             y2="72.310997"
             id="line84"
             style="fill:none;stroke:#70bf41;stroke-width:2" /></g></g><g
         id="Layer_1"><g
           id="g87"><rect
             x="24"
             y="85"
             width="100"
             height="128"
             id="rect89"
             style="fill:#dcdee0" /><rect
             x="24"
             y="85"
             width="100"
             height="128"
             id="rect91"
             style="fill:none;stroke:#85888d;stroke-width:2" /><line
             x1="37"
             y1="105"
             x2="111"
             y2="105"
             id="line93"
             style="fill:none;stroke:#000000;stroke-width:2" /><line
             x1="37"
             y1="111"
             x2="111"
             y2="111"
             id="line95"
             style="fill:none;stroke:#000000;stroke-width:2" /><line
             x1="37"
             y1="117"
             x2="111"
             y2="117"
             id="line97"
             style="fill:none;stroke:#000000;stroke-width:2" /><line
             x1="37"
             y1="129"
             x2="111"
             y2="129"
             id="line99"
             style="fill:none;stroke:#70bf41;stroke-width:2" /></g></g><g
         id="Layer_2"><g
           id="g102"><rect
             x="150.871"
             y="136.76801"
             width="45.956001"
             height="30.604"
             id="rect104"
             style="fill:#45beee" /><polygon
             points="234.02,151.163 193.467,121.571 193.467,181.695 "
             id="polygon106"
             style="fill:#45beee" /></g><rect
           x="164"
           y="146.069"
           width="52.743"
           height="14"
           id="rect108"
           style="fill:none" /><text
           transform="translate(164,154.3496)"
           font-size="12"
           id="text110"
           style="font-size:12px;font-family:Consolas">git add</text>
<g
           id="g112"><rect
             x="381.25101"
             y="136.76801"
             width="45.956001"
             height="30.604"
             id="rect114"
             style="fill:#45beee" /><polygon
             points="464.399,151.163 423.847,121.571 423.847,181.695 "
             id="polygon116"
             style="fill:#45beee" /></g><rect
           x="376.98001"
           y="146.069"
           width="85.542"
           height="14"
           id="rect118"
           style="fill:none" /><text
           transform="translate(386.7637,154.3496)"
           font-size="12"
           id="text120"
           style="font-size:12px;font-family:Consolas">git commit</text>
<rect
           x="229"
           y="206"
           width="147"
           height="17"
           id="rect122"
           style="fill:none" /><text
           transform="translate(269.4766,214.6279)"
           font-size="12"
           id="text124"
           style="font-size:12px;font-family:Helvetica">staging area</text>
<rect
           x="464.785"
           y="219"
           width="147"
           height="17"
           id="rect126"
           style="fill:none" /><text
           transform="translate(511.9414,227.6279)"
           font-size="12"
           id="text128"
           style="font-size:12px;font-family:Helvetica">repository</text>
</g></g></g></svg>