<?xml version="1.0" encoding="utf-8"?>
<!-- Generator: Adobe Illustrator 15.1.0, SVG Export Plug-In . SVG Version: 6.00 Build 0)  -->
<!DOCTYPE svg PUBLIC "-//W3C//DTD SVG 1.1//EN" "http://www.w3.org/Graphics/SVG/1.1/DTD/svg11.dtd">
<svg version="1.1" xmlns="http://www.w3.org/2000/svg" xmlns:xlink="http://www.w3.org/1999/xlink" x="0px" y="0px"
	 width="551.195px" height="407.416px" viewBox="0 0 551.195 407.416" enable-background="new 0 0 551.195 407.416"
	 xml:space="preserve">
<g id="Layer_2">
	<g>
		<g>
			<g>
				<path fill="#231F20" d="M250.901,150.195c-0.062-7.312-1.195-14.773,0.454-21.985c2.015-8.814,12.789-14.957,21.055-10.496
					c10.601,5.722,12.913,23.013,10.96,33.569c-1.108,5.986-5.31,12.068-11.453,13.577c-6.132,1.507-12.131-3.565-15.83-7.786
					c-7.324-8.355-13.355-23.886-5.994-33.935c0.728-0.992-1.096-1.274-1.615-0.564c-8.444,11.525-0.956,29.543,8.511,38.139
					c4.438,4.029,9.944,6.774,16.015,5.283c6.038-1.483,10.286-7.537,11.928-13.183c3.514-12.077-0.579-33.264-14.193-37.568
					c-6.904-2.184-15.135,2.066-19.028,7.687c-5.281,7.622-2.836,18.799-2.765,27.411
					C248.953,151.356,250.908,151.058,250.901,150.195L250.901,150.195z"/>
			</g>
		</g>
		<g>
			<g>
				<path fill="#231F20" d="M266.809,166.334c-2.793,11.585-6.817,23.188-7.187,35.193c-0.372,12.09,5.258,22.456,12.99,31.353
					c0.426,0.489,2.272-0.198,1.797-0.746c-8.071-9.285-13.204-19.607-12.821-32.078c0.354-11.519,4.471-22.866,7.15-33.976
					C268.904,165.392,266.963,165.696,266.809,166.334L266.809,166.334z"/>
			</g>
		</g>
		<g>
			<g>
				<path fill="#231F20" d="M273.362,164.697c7.88,2.6,15.94,4.531,21.858,10.729c4.051,4.242,7.037,9.963,10.038,14.974
					c3.257,5.438,5.746,11.236,6.811,17.503c0.081,0.479,2.026,0.037,1.932-0.518c-1.938-11.411-8.933-22.869-16.192-31.767
					c-5.723-7.014-14.679-9.022-22.874-11.727C274.457,163.735,272.716,164.483,273.362,164.697L273.362,164.697z"/>
			</g>
		</g>
		<g>
			<g>
				<path fill="#231F20" d="M270.063,187.231c-3.256,6.173-5.021,12.921-5.168,19.901c-0.014,0.634,1.002,0.38,1.343,0.259
					c9.512-3.374,14.311-13.499,23.168-17.96c1.16-0.584-0.574-0.86-1.191-0.549c-8.689,4.375-13.475,14.456-22.732,17.741
					c0.447,0.086,0.896,0.173,1.343,0.259c0.144-6.859,1.83-13.551,5.033-19.624C272.283,186.454,270.351,186.688,270.063,187.231
					L270.063,187.231z"/>
			</g>
		</g>
		<g>
			<g>
				<path fill="#231F20" d="M286.168,169.438c4.462,0,8.925,0,13.387,0c-0.18-0.365-0.36-0.73-0.54-1.096
					c-7.682,6.752-11.475,16.244-17.382,24.376c-0.718,0.987,1.108,1.214,1.605,0.529c5.786-7.964,9.526-17.465,17.044-24.073
					c0.646-0.568,0.205-1.096-0.54-1.096c-4.463,0-8.926,0-13.389,0C285.271,168.078,284.854,169.438,286.168,169.438
					L286.168,169.438z"/>
			</g>
		</g>
		<g>
			<g>
				<path fill="#231F20" d="M274.65,233.668c16.433-2.069,27.084-19.306,37.37-30.471c0.556-0.603-1.385-0.475-1.795-0.029
					c-9.598,10.417-20.011,27.526-35.306,29.453C273.995,232.737,273.31,233.837,274.65,233.668L274.65,233.668z"/>
			</g>
		</g>
	</g>
	<polygon fill="#FFFFFF" stroke="#231F20" stroke-miterlimit="10" points="217.41,261.194 316.86,161.745 379.332,161.745 
		379.332,161.104 279.242,261.194 	"/>
	<polyline fill="none" stroke="#231F20" stroke-miterlimit="10" points="232.711,261.194 232.711,105.008 332.798,4.921 
		332.798,161.745 332.16,161.745 	"/>
</g>
<g id="Layer_3">
	<g id="Layer_4">
		<linearGradient id="SVGID_1_" gradientUnits="userSpaceOnUse" x1="392.3398" y1="180.3281" x2="392.3398" y2="240.1514">
			<stop  offset="0.0982" style="stop-color:#C4C4C4"/>
			<stop  offset="0.5326" style="stop-color:#686868"/>
			<stop  offset="1" style="stop-color:#000000"/>
		</linearGradient>
		<path fill="url(#SVGID_1_)" stroke="#231F20" stroke-miterlimit="10" d="M338.152,239.036c0-10.034,24.261-18.169,54.188-18.169
			s54.188,8.135,54.188,18.169v1.115c0,0,0-2.294,0-3.379s0-38.696,0-38.696v0.421c0-10.034-24.261-18.169-54.188-18.169
			s-54.188,8.135-54.188,18.169v-0.421c0,0,0,37.375,0,38.685c0,1.309,0,3.391,0,3.391V239.036z"/>
	</g>
	<linearGradient id="SVGID_2_" gradientUnits="userSpaceOnUse" x1="138.5811" y1="221.332" x2="138.5811" y2="281.1553">
		<stop  offset="0.0982" style="stop-color:#C4C4C4"/>
		<stop  offset="0.5326" style="stop-color:#686868"/>
		<stop  offset="1" style="stop-color:#000000"/>
	</linearGradient>
	<path fill="url(#SVGID_2_)" stroke="#231F20" stroke-miterlimit="10" d="M84.394,280.04c0-10.034,24.261-18.169,54.188-18.169
		s54.188,8.135,54.188,18.169v1.115c0,0,0-2.294,0-3.379s0-38.696,0-38.696v0.421c0-10.034-24.261-18.169-54.188-18.169
		s-54.188,8.135-54.188,18.169v-0.421c0,0,0,37.375,0,38.685c0,1.309,0,3.391,0,3.391V280.04z"/>
	<g>
		<line fill="none" stroke="#129E49" stroke-miterlimit="10" x1="100.175" y1="247.419" x2="133.835" y2="238.621"/>
		<line fill="none" stroke="#129E49" stroke-miterlimit="10" x1="100.175" y1="249.522" x2="133.835" y2="240.725"/>
		<line fill="none" stroke="#129E49" stroke-miterlimit="10" x1="100.175" y1="253.348" x2="133.835" y2="244.55"/>
		<line fill="none" stroke="#129E49" stroke-miterlimit="10" x1="100.175" y1="255.26" x2="133.835" y2="246.463"/>
		<line fill="none" stroke="#129E49" stroke-miterlimit="10" x1="100.175" y1="257.173" x2="133.835" y2="248.375"/>
	</g>
	<g>
		<line fill="#231F20" stroke="#EF4A44" stroke-miterlimit="10" x1="142.696" y1="234.031" x2="176.738" y2="243.977"/>
		<line fill="#231F20" stroke="#EF4A44" stroke-miterlimit="10" x1="142.696" y1="235.943" x2="176.738" y2="245.889"/>
		<line fill="#231F20" stroke="#EF4A44" stroke-miterlimit="10" x1="142.696" y1="237.856" x2="176.738" y2="247.801"/>
		<line fill="#231F20" stroke="#EF4A44" stroke-miterlimit="10" x1="142.696" y1="245.506" x2="176.738" y2="255.451"/>
		<line fill="#231F20" stroke="#EF4A44" stroke-miterlimit="10" x1="142.696" y1="247.419" x2="176.738" y2="257.363"/>
		<line fill="#231F20" stroke="#EF4A44" stroke-miterlimit="10" x1="142.696" y1="249.331" x2="176.738" y2="259.276"/>
		<line fill="#231F20" stroke="#EF4A44" stroke-miterlimit="10" x1="142.696" y1="251.244" x2="176.738" y2="261.188"/>
		<line fill="#231F20" stroke="#EF4A44" stroke-miterlimit="10" x1="142.696" y1="253.156" x2="176.738" y2="263.102"/>
		<line fill="#231F20" stroke="#EF4A44" stroke-miterlimit="10" x1="142.696" y1="255.068" x2="176.738" y2="265.014"/>
	</g>
	<g>
		<line fill="#231F20" stroke="#EF4A44" stroke-miterlimit="10" x1="353.963" y1="322.893" x2="388.005" y2="332.838"/>
		<line fill="#231F20" stroke="#EF4A44" stroke-miterlimit="10" x1="353.963" y1="324.805" x2="388.005" y2="334.75"/>
		<line fill="#231F20" stroke="#EF4A44" stroke-miterlimit="10" x1="353.963" y1="326.718" x2="388.005" y2="336.662"/>
		<line fill="#231F20" stroke="#EF4A44" stroke-miterlimit="10" x1="353.963" y1="334.367" x2="388.005" y2="344.312"/>
		<line fill="#231F20" stroke="#EF4A44" stroke-miterlimit="10" x1="353.963" y1="336.28" x2="388.005" y2="346.225"/>
		<line fill="#231F20" stroke="#EF4A44" stroke-miterlimit="10" x1="353.963" y1="338.192" x2="388.005" y2="348.138"/>
		<line fill="#231F20" stroke="#EF4A44" stroke-miterlimit="10" x1="353.963" y1="340.105" x2="388.005" y2="350.05"/>
		<line fill="#231F20" stroke="#EF4A44" stroke-miterlimit="10" x1="353.963" y1="342.018" x2="388.005" y2="351.963"/>
		<line fill="#231F20" stroke="#EF4A44" stroke-miterlimit="10" x1="353.963" y1="343.93" x2="388.005" y2="353.875"/>
	</g>
</g>
<g id="Layer_1">
	<g>
		<path fill="#FFFFFF" stroke="#231F20" stroke-miterlimit="10" d="M192.548,364.585c0,0,0,37.61,0,38.696
			c0,1.085,0.382,3.379,0.382,3.379c0,10.034-24.643,18.168-54.569,18.168s-54.57-8.134-54.57-18.168c0,0,0.382-2.082,0.382-3.391
			c0-1.31,0-38.685,0-38.685c0,10.034,24.261,18.169,54.188,18.169S192.548,374.619,192.548,364.585z"/>
		<rect x="117.005" y="396.46" fill="none" width="42.712" height="10.2"/>
		<text transform="matrix(1 0 0 1 121.7998 402.3984)" fill="#231F20" font-family="'Consolas'" font-size="8.6062">a2129cb</text>
	</g>
	<g>
		<path fill="#FFFFFF" stroke="#231F20" stroke-miterlimit="10" d="M192.548,322.701c0,0,0,37.611,0,38.696s0.382,3.379,0.382,3.379
			c0,10.034-24.643,18.169-54.569,18.169s-54.57-8.135-54.57-18.169c0,0,0.382-2.082,0.382-3.391c0-1.31,0-38.685,0-38.685
			c0,10.035,24.261,18.169,54.188,18.169S192.548,332.736,192.548,322.701z"/>
		<rect x="117.005" y="354.576" fill="none" width="42.712" height="10.2"/>
		<text transform="matrix(1 0 0 1 121.7998 360.5146)" fill="#231F20" font-family="'Consolas'" font-size="8.6062">892134f</text>
	</g>
	<g>
		<path fill="#FFFFFF" stroke="#231F20" stroke-miterlimit="10" d="M192.548,280.818c0,0,0,37.61,0,38.695
			c0,1.086,0.382,3.379,0.382,3.379c0,10.034-24.643,18.169-54.569,18.169s-54.57-8.135-54.57-18.169c0,0,0.382-2.082,0.382-3.391
			s0-38.684,0-38.684c0,10.034,24.261,18.168,54.188,18.168S192.548,290.853,192.548,280.818z"/>
		<rect x="117.005" y="312.692" fill="none" width="42.712" height="10.2"/>
		<text transform="matrix(1 0 0 1 121.7998 318.6309)" fill="#231F20" font-family="'Consolas'" font-size="8.6062">59e230a</text>
	</g>
	<g>
		<path fill="#FFFFFF" stroke="#231F20" stroke-miterlimit="10" d="M192.548,238.621c0,0,0,37.611,0,38.696s0.382,3.379,0.382,3.379
			c0,10.034-24.643,18.169-54.569,18.169s-54.57-8.135-54.57-18.169c0,0,0.382-2.082,0.382-3.391c0-1.31,0-38.685,0-38.685
			c0,10.035,24.261,18.169,54.188,18.169S192.548,248.656,192.548,238.621z"/>
		<rect x="117.005" y="270.496" fill="none" width="42.712" height="10.2"/>
		<text transform="matrix(1 0 0 1 121.7998 276.4346)" fill="#231F20" font-family="'Consolas'" font-size="8.6062">3a54f76</text>
	</g>
	<g>
		<path fill="#FFFFFF" stroke="#231F20" stroke-miterlimit="10" d="M446.527,198.076c0,0,0,37.611,0,38.696s0.383,3.379,0.383,3.379
			c0,10.034-24.644,18.169-54.57,18.169s-54.569-8.135-54.569-18.169c0,0,0.382-2.082,0.382-3.391c0-1.31,0-38.685,0-38.685
			c0,10.034,24.261,18.169,54.188,18.169S446.527,208.11,446.527,198.076z"/>
		<rect x="370.984" y="229.951" fill="none" width="42.712" height="10.2"/>
		<text transform="matrix(1 0 0 1 375.7793 235.8906)" fill="#231F20" font-family="'Consolas'" font-size="8.6062">43fe423</text>
	</g>
	<g>
		<rect x="134.07" y="151.922" fill="#231F20" width="8.583" height="27.585"/>
		<g>
			<polygon fill="#231F20" points="128.879,176.717 138.413,193.231 147.95,176.717 			"/>
		</g>
	</g>
	<g>
		<rect x="387.996" y="148.103" fill="#231F20" width="8.582" height="27.585"/>
		<g>
			<polygon fill="#231F20" points="382.805,172.897 392.339,189.412 401.875,172.897 			"/>
		</g>
	</g>
	<g>
		<rect x="479.342" y="220.768" fill="#4DA2D9" width="27.585" height="8.583"/>
		<g>
			<polygon fill="#4DA2D9" points="482.132,215.577 465.617,225.111 482.132,234.647 			"/>
		</g>
	</g>
	<rect x="96.506" y="128.207" fill="none" width="84.149" height="34.425"/>
	<text transform="matrix(1 0 0 1 125.4238 134.3945)"><tspan x="0" y="0" fill="#231F20" font-family="'Helvetica'" font-size="8.6062">branch</tspan><tspan x="-1.038" y="10.328" fill="#231F20" font-family="'Consolas'" font-size="8.6062">master</tspan></text>
	<rect x="350.212" y="136.309" fill="none" width="84.149" height="12.24"/>
	<text transform="matrix(1 0 0 1 368.6025 142.4961)" fill="#231F20" font-family="'Helvetica'" font-size="8.6062">staging area</text>
	<rect x="444.197" y="237.479" fill="none" width="84.149" height="12.24"/>
	<text transform="matrix(1 0 0 1 446.0518 243.418)" fill="#231F20" font-family="'Consolas'" font-size="8.6062">git add file2.txt</text>
	<g>
		
			<rect x="444.527" y="166.554" transform="matrix(0.2643 0.9644 -0.9644 0.2643 504.1185 -300.1791)" fill="#4DA2D9" width="8.583" height="27.585"/>
		<g>
			<polygon fill="#4DA2D9" points="435.701,174.108 422.293,187.669 440.741,192.502 			"/>
		</g>
	</g>
	<g>
		<polygon fill="#4DA2D9" points="335.438,321.158 332.719,329.299 185.139,276.143 187.858,268.003 		"/>
		<g>
			<polygon fill="#4DA2D9" points="328.428,333.338 347.112,329.526 334.47,315.25 			"/>
		</g>
	</g>
	
		<rect x="405.025" y="193.921" transform="matrix(0.9644 -0.2643 0.2643 0.9644 -36.9699 125.2668)" fill="none" width="84.15" height="12.24"/>
	
		<text transform="matrix(0.9644 -0.2643 0.2643 0.9644 408.2617 210.502)" fill="#231F20" font-family="'Consolas'" font-size="8.6062">git add file1.txt</text>
	
		<rect x="182.005" y="306.705" transform="matrix(0.9416 0.3367 -0.3367 0.9416 120.3449 -68.3223)" fill="none" width="150.317" height="12.24"/>
	
		<text transform="matrix(0.9416 0.3367 -0.3367 0.9416 197.083 291.1387)" fill="#231F20" font-family="'Consolas'" font-size="8.6062">git checkout HEAD file1.txt</text>
	<polygon fill="none" points="306.881,39.09 254.479,91.492 254.479,70.264 306.881,17.862 	"/>
	<text transform="matrix(1 -1 0 1 261.7529 72.4922)" fill="#231F20" font-family="'Consolas-Bold'" font-size="13.7699">/.git</text>
	<line fill="#4779BC" stroke="#4779BC" stroke-miterlimit="10" x1="467.529" y1="203.373" x2="505.015" y2="203.373"/>
	<line fill="#4779BC" stroke="#4779BC" stroke-miterlimit="10" x1="467.529" y1="205.286" x2="505.015" y2="205.286"/>
	<line fill="#4779BC" stroke="#4779BC" stroke-miterlimit="10" x1="467.529" y1="207.198" x2="505.015" y2="207.198"/>
	<line fill="#4779BC" stroke="#4779BC" stroke-miterlimit="10" x1="467.529" y1="209.111" x2="505.015" y2="209.111"/>
	<line fill="#4779BC" stroke="#4779BC" stroke-miterlimit="10" x1="467.529" y1="211.023" x2="505.015" y2="211.023"/>
	<rect x="24.347" y="249.995" fill="none" width="54.512" height="18.362"/>
	<text transform="matrix(1 0 0 1 36.4609 259.4961)" fill="#231F20" font-family="'Consolas'" font-size="13.7699">HEAD</text>
	<rect x="24.347" y="296.888" fill="none" width="54.512" height="18.362"/>
	<text transform="matrix(1 0 0 1 28.8901 306.3887)" fill="#231F20" font-family="'Consolas'" font-size="13.7699">HEAD~1</text>
	<rect x="24.347" y="344.024" fill="none" width="54.512" height="18.362"/>
	<text transform="matrix(1 0 0 1 28.8901 353.5254)" fill="#231F20" font-family="'Consolas'" font-size="13.7699">HEAD~2</text>
	<path fill="#4DA2D9" d="M372.97,242.569c-8.949,3.835-17.905,7.667-27.02,11.099c-2.145,0.808-4.3,1.589-6.464,2.344
		c-0.086,0.03-0.172,0.06-0.258,0.09c-0.729,0.252-0.345,0.12,1.151-0.396c-0.259,0.089-0.518,0.177-0.776,0.266
		c-0.518,0.176-1.035,0.349-1.555,0.521c-1.123,0.374-2.25,0.736-3.379,1.092c-4.395,1.385-8.836,2.618-13.314,3.694
		c-2.312,0.556-4.635,1.063-6.966,1.531c-0.284,0.057-0.569,0.113-0.854,0.169c0.477-0.093,0.953-0.186,1.43-0.278
		c-0.191,0.037-0.383,0.073-0.574,0.11c-0.577,0.109-1.155,0.215-1.734,0.319c-1.271,0.229-2.547,0.443-3.824,0.647
		c-5.213,0.834-10.46,1.448-15.719,1.9c-2.857,0.245-5.719,0.435-8.582,0.584c-0.355,0.02-0.711,0.036-1.067,0.054
		c-1.394,0.067,1.835-0.08,0.434-0.02c-0.707,0.031-1.415,0.058-2.122,0.083c-1.525,0.055-3.05,0.094-4.575,0.123
		c-5.73,0.11-11.466,0.028-17.19-0.246c-4.289-0.206-8.571-0.536-12.84-0.988c-0.96-0.102-1.919-0.212-2.878-0.327
		c2.265,0.271,0.264,0.028-0.241-0.037c-0.523-0.067-1.047-0.14-1.569-0.212c-2.06-0.284-4.113-0.607-6.161-0.962
		c-7.437-1.286-14.803-3.062-21.943-5.516c0.455,0.156,0.91,0.313,1.364,0.471c-7.519-2.604-14.84-5.975-21.302-10.66
		c0.331,0.241-0.92-1.19-0.92-1.19l12.147-0.563l-28.937-9.821l-5.854,22.081c0,0,6.743-7.2,7.702-6.392
		c6.42,5.424,13.855,9.438,21.663,12.475c9.322,3.626,19.059,6.062,28.919,7.679c11.242,1.845,22.641,2.738,34.027,2.895
		c11.924,0.162,23.911-0.401,35.754-1.811c10.257-1.222,20.454-3.188,30.42-5.907c9.414-2.569,18.639-5.846,27.714-9.421
		c7.332-2.887,14.576-5.99,21.817-9.093c1.868-0.801,6.223-3.607,3.89-6.128c-0.982-1.062-2.652-1.348-4.014-1.396
		C376.796,241.363,374.778,241.794,372.97,242.569L372.97,242.569z"/>
	<line fill="#FFFFFF" stroke="#917FBA" stroke-miterlimit="10" x1="428.643" y1="163.275" x2="459.497" y2="153.904"/>
	<line fill="#FFFFFF" stroke="#917FBA" stroke-miterlimit="10" x1="428.643" y1="165.188" x2="459.497" y2="155.816"/>
	<line fill="#FFFFFF" stroke="#917FBA" stroke-miterlimit="10" x1="428.643" y1="167.1" x2="459.497" y2="157.729"/>
	<line fill="#FFFFFF" stroke="#917FBA" stroke-miterlimit="10" x1="428.643" y1="170.925" x2="459.497" y2="161.554"/>
	<line fill="#FFFFFF" stroke="#917FBA" stroke-miterlimit="10" x1="428.643" y1="172.838" x2="459.497" y2="163.466"/>
	<rect x="231.181" y="264.084" fill="none" width="84.149" height="12.239"/>
	<text transform="matrix(1 0 0 1 249.5957 270.0215)" fill="#231F20" font-family="'Consolas'" font-size="8.6062">git commit</text>
</g>
</svg>
