<?xml version="1.0" encoding="utf-8"?>
<!-- Generator: Adobe Illustrator 15.1.0, SVG Export Plug-In . SVG Version: 6.00 Build 0)  -->
<!DOCTYPE svg PUBLIC "-//W3C//DTD SVG 1.1//EN" "http://www.w3.org/Graphics/SVG/1.1/DTD/svg11.dtd">
<svg version="1.1" id="Layer_1" xmlns="http://www.w3.org/2000/svg" xmlns:xlink="http://www.w3.org/1999/xlink" x="0px" y="0px"
	 width="398px" height="382px" viewBox="0 0 398 382" enable-background="new 0 0 398 382" xml:space="preserve">
<g>
	<rect x="266" y="129" fill="#DCDEE0" width="100" height="127"/>
	<rect x="266" y="129" fill="none" stroke="#85888D" stroke-width="2" width="100" height="127"/>
	<line fill="none" stroke="#000000" stroke-width="2" x1="279" y1="149" x2="353" y2="149"/>
	<line fill="none" stroke="#000000" stroke-width="2" x1="279" y1="155" x2="353" y2="155"/>
	<line fill="none" stroke="#000000" stroke-width="2" x1="279" y1="160" x2="353" y2="160"/>
	<line fill="none" stroke="#70BF41" stroke-width="2" x1="279" y1="172" x2="353" y2="172"/>
	<rect x="32" y="41" fill="#DCDEE0" width="100" height="128"/>
	<rect x="32" y="41" fill="none" stroke="#85888D" stroke-width="2" width="100" height="128"/>
	<line fill="none" stroke="#000000" stroke-width="2" x1="45" y1="61" x2="119" y2="61"/>
	<line fill="none" stroke="#000000" stroke-width="2" x1="45" y1="67" x2="119" y2="67"/>
	<line fill="none" stroke="#000000" stroke-width="2" x1="45" y1="73" x2="119" y2="73"/>
	<line fill="none" stroke="#70BF41" stroke-width="2" x1="45" y1="85" x2="119" y2="85"/>
	<line fill="none" stroke="#70BF41" stroke-width="2" x1="162" y1="155" x2="236" y2="155"/>
</g>
<g>
	<rect x="32" y="221" fill="#DCDEE0" width="100" height="128"/>
	<rect x="32" y="221" fill="none" stroke="#85888D" stroke-width="2" width="100" height="128"/>
	<line fill="none" stroke="#000000" stroke-width="2" x1="45" y1="241" x2="119" y2="241"/>
	<line fill="none" stroke="#000000" stroke-width="2" x1="45" y1="247" x2="119" y2="247"/>
	<line fill="none" stroke="#000000" stroke-width="2" x1="45" y1="253" x2="119" y2="253"/>
	<line fill="none" stroke="#C82506" stroke-width="2" x1="45" y1="265" x2="119" y2="265"/>
</g>
<polygon fill="#45BEEE" points="205.711,272.768 210.008,286.822 239.666,246.316 192.428,229.32 196.725,243.375 155.825,255.879 
	164.812,285.271 "/>
<polygon fill="#45BEEE" points="197.488,131.384 193.191,145.438 240.43,128.443 210.771,87.937 206.475,101.992 165.574,89.487 
	156.588,118.88 "/>
<g>
	<line fill="none" stroke="#C82506" stroke-width="2" x1="45" y1="271" x2="119" y2="271"/>
	<line fill="none" stroke="#C82506" stroke-width="2" x1="162" y1="208" x2="236" y2="208"/>
	<line fill="none" stroke="#C82506" stroke-width="2" x1="162" y1="214" x2="236" y2="214"/>
	<line fill="none" stroke="#C82506" stroke-width="2" x1="279" y1="179" x2="353" y2="179"/>
	<line fill="none" stroke="#C82506" stroke-width="2" x1="279" y1="185" x2="353" y2="185"/>
</g>
</svg>
