<?xml version="1.0" encoding="utf-8"?>
<!-- Generator: Adobe Illustrator 15.1.0, SVG Export Plug-In . SVG Version: 6.00 Build 0)  -->
<!DOCTYPE svg PUBLIC "-//W3C//DTD SVG 1.1//EN" "http://www.w3.org/Graphics/SVG/1.1/DTD/svg11.dtd">
<svg version="1.1" xmlns="http://www.w3.org/2000/svg" xmlns:xlink="http://www.w3.org/1999/xlink" x="0px" y="0px" width="615px"
	 height="196.5px" viewBox="0 0 615 196.5" enable-background="new 0 0 615 196.5" xml:space="preserve">
<g id="Layer_1">
	<g>
		<defs>
			<rect id="SVGID_1_" x="34.52" y="28.419" width="104" height="131.217"/>
		</defs>
		<clipPath id="SVGID_2_">
			<use xlink:href="#SVGID_1_"  overflow="visible"/>
		</clipPath>
		<rect x="37" y="30" clip-path="url(#SVGID_2_)" fill="#DCDEE0" width="100" height="128"/>
		<rect x="37" y="30" clip-path="url(#SVGID_2_)" fill="none" stroke="#85888D" stroke-width="2" width="100" height="128"/>
	</g>
	<g>
		<defs>
			<rect id="SVGID_3_" x="48.635" y="48.268" width="75.805" height="4"/>
		</defs>
		<clipPath id="SVGID_4_">
			<use xlink:href="#SVGID_3_"  overflow="visible"/>
		</clipPath>
		<line clip-path="url(#SVGID_4_)" fill="none" stroke="#000000" stroke-width="2" x1="50" y1="50" x2="123" y2="50"/>
	</g>
	<g>
		<defs>
			<rect id="SVGID_5_" x="48.635" y="54.097" width="75.805" height="4"/>
		</defs>
		<clipPath id="SVGID_6_">
			<use xlink:href="#SVGID_5_"  overflow="visible"/>
		</clipPath>
		<line clip-path="url(#SVGID_6_)" fill="none" stroke="#000000" stroke-width="2" x1="50" y1="56" x2="123" y2="56"/>
	</g>
	<g>
		<defs>
			<rect id="SVGID_7_" x="48.635" y="59.926" width="75.805" height="4"/>
		</defs>
		<clipPath id="SVGID_8_">
			<use xlink:href="#SVGID_7_"  overflow="visible"/>
		</clipPath>
		<line clip-path="url(#SVGID_8_)" fill="none" stroke="#000000" stroke-width="2" x1="50" y1="62" x2="123" y2="62"/>
	</g>
	<g>
		<defs>
			<rect id="SVGID_9_" x="48.635" y="71.585" width="75.805" height="4"/>
		</defs>
		<clipPath id="SVGID_10_">
			<use xlink:href="#SVGID_9_"  overflow="visible"/>
		</clipPath>
		<line clip-path="url(#SVGID_10_)" fill="none" stroke="#000000" stroke-width="2" x1="50" y1="74" x2="123" y2="74"/>
	</g>
	<g>
		<rect x="258" y="30" fill="#DCDEE0" width="100" height="128"/>
		<rect x="258" y="30" fill="none" stroke="#85888D" stroke-width="2" width="100" height="128"/>
		<line fill="none" stroke="#000000" stroke-width="2" x1="272" y1="50" x2="345" y2="50"/>
		<line fill="none" stroke="#000000" stroke-width="2" x1="272" y1="56" x2="345" y2="56"/>
		<line fill="none" stroke="#000000" stroke-width="2" x1="272" y1="62" x2="345" y2="62"/>
		<line fill="none" stroke="#70BF41" stroke-width="2" x1="272" y1="74" x2="345" y2="74"/>
		<line fill="none" stroke="#70BF41" stroke-width="2" x1="160" y1="55" x2="234" y2="55"/>
		<rect x="481" y="31" fill="#DCDEE0" width="100" height="128"/>
		<rect x="481" y="31" fill="none" stroke="#85888D" stroke-width="2" width="100" height="128"/>
		<line fill="none" stroke="#000000" stroke-width="2" x1="495" y1="51" x2="568" y2="51"/>
		<line fill="none" stroke="#000000" stroke-width="2" x1="495" y1="57" x2="568" y2="57"/>
		<line fill="none" stroke="#000000" stroke-width="2" x1="495" y1="63" x2="568" y2="63"/>
		<line fill="none" stroke="#70BF41" stroke-width="2" x1="495" y1="75" x2="568" y2="75"/>
		<line fill="none" stroke="#70BF41" stroke-width="2" x1="495" y1="86" x2="568" y2="86"/>
		<line fill="none" stroke="#70BF41" stroke-width="2" x1="495" y1="92" x2="568" y2="92"/>
		<line fill="none" stroke="#70BF41" stroke-width="2" x1="495" y1="98" x2="568" y2="98"/>
		<line fill="none" stroke="#70BF41" stroke-width="2" x1="383" y1="49" x2="457" y2="49"/>
		<line fill="none" stroke="#70BF41" stroke-width="2" x1="383" y1="55" x2="457" y2="55"/>
		<line fill="none" stroke="#70BF41" stroke-width="2" x1="383" y1="61" x2="457" y2="61"/>
		<g>
			<defs>
				<rect id="SVGID_11_" x="157.116" y="65.521" width="88.974" height="66.13"/>
			</defs>
			<clipPath id="SVGID_12_">
				<use xlink:href="#SVGID_11_"  overflow="visible"/>
			</clipPath>
		</g>
	</g>
	<g>
		<g>
			<defs>
				<rect id="SVGID_13_" x="-203" y="-477" width="1024" height="768"/>
			</defs>
			<clipPath id="SVGID_14_">
				<use xlink:href="#SVGID_13_"  overflow="visible"/>
			</clipPath>
		</g>
	</g>
	<g>
		<g>
			<defs>
				<rect id="SVGID_15_" x="375.494" y="73.597" width="88.974" height="66.129"/>
			</defs>
			<clipPath id="SVGID_16_">
				<use xlink:href="#SVGID_15_"  overflow="visible"/>
			</clipPath>
		</g>
	</g>
	<g opacity="0.5">
		<rect x="163.931" y="85.276" fill="#009CFD" width="44.865" height="26.919"/>
		<g>
			<polygon fill="#009CFD" points="200.941,125.429 239.275,98.588 200.941,71.743 			"/>
		</g>
	</g>
	<g opacity="0.5">
		<rect x="383.016" y="85.276" fill="#009CFD" width="44.865" height="26.919"/>
		<g>
			<polygon fill="#009CFD" points="420.026,125.429 458.359,98.588 420.026,71.743 			"/>
		</g>
	</g>
</g>
<g id="Layer_2">
</g>
</svg>
