<?xml version="1.0" encoding="utf-8"?>
<!-- Generator: Adobe Illustrator 15.1.0, SVG Export Plug-In . SVG Version: 6.00 Build 0)  -->
<!DOCTYPE svg PUBLIC "-//W3C//DTD SVG 1.1//EN" "http://www.w3.org/Graphics/SVG/1.1/DTD/svg11.dtd">
<svg version="1.1" id="Layer_1" xmlns="http://www.w3.org/2000/svg" xmlns:xlink="http://www.w3.org/1999/xlink" x="0px" y="0px"
	 width="384px" height="354px" viewBox="0 0 384 354" enable-background="new 0 0 384 354" xml:space="preserve">
<g>
	<defs>
		<rect id="SVGID_1_" x="31.218" y="108.841" width="104" height="131.216"/>
	</defs>
	<clipPath id="SVGID_2_">
		<use xlink:href="#SVGID_1_"  overflow="visible"/>
	</clipPath>
	<rect x="33" y="111" clip-path="url(#SVGID_2_)" fill="#DCDEE0" width="100" height="127"/>
	<rect x="33" y="111" clip-path="url(#SVGID_2_)" fill="none" stroke="#85888D" stroke-width="2" width="100" height="127"/>
</g>
<g>
	<defs>
		<rect id="SVGID_3_" x="45.334" y="128.688" width="75.805" height="4"/>
	</defs>
	<clipPath id="SVGID_4_">
		<use xlink:href="#SVGID_3_"  overflow="visible"/>
	</clipPath>
	<line clip-path="url(#SVGID_4_)" fill="none" stroke="#000000" stroke-width="2" x1="46" y1="131" x2="120" y2="131"/>
</g>
<g>
	<defs>
		<rect id="SVGID_5_" x="45.334" y="134.519" width="75.805" height="4"/>
	</defs>
	<clipPath id="SVGID_6_">
		<use xlink:href="#SVGID_5_"  overflow="visible"/>
	</clipPath>
	<line clip-path="url(#SVGID_6_)" fill="none" stroke="#000000" stroke-width="2" x1="46" y1="137" x2="120" y2="137"/>
</g>
<g>
	<defs>
		<rect id="SVGID_7_" x="45.334" y="140.348" width="75.805" height="4"/>
	</defs>
	<clipPath id="SVGID_8_">
		<use xlink:href="#SVGID_7_"  overflow="visible"/>
	</clipPath>
	<line clip-path="url(#SVGID_8_)" fill="none" stroke="#000000" stroke-width="2" x1="46" y1="142" x2="120" y2="142"/>
</g>
<g>
	<defs>
		<rect id="SVGID_9_" x="45.334" y="152.006" width="75.805" height="4"/>
	</defs>
	<clipPath id="SVGID_10_">
		<use xlink:href="#SVGID_9_"  overflow="visible"/>
	</clipPath>
	<line clip-path="url(#SVGID_10_)" fill="none" stroke="#000000" stroke-width="2" x1="46" y1="154" x2="120" y2="154"/>
</g>
<g>
	<defs>
		<rect id="SVGID_11_" x="253.198" y="21.402" width="104" height="131.216"/>
	</defs>
	<clipPath id="SVGID_12_">
		<use xlink:href="#SVGID_11_"  overflow="visible"/>
	</clipPath>
	<rect x="255" y="23" clip-path="url(#SVGID_12_)" fill="#DCDEE0" width="100" height="128"/>
	<rect x="255" y="23" clip-path="url(#SVGID_12_)" fill="none" stroke="#85888D" stroke-width="2" width="100" height="128"/>
</g>
<g>
	<defs>
		<rect id="SVGID_13_" x="267.314" y="41.25" width="75.805" height="4"/>
	</defs>
	<clipPath id="SVGID_14_">
		<use xlink:href="#SVGID_13_"  overflow="visible"/>
	</clipPath>
	<line clip-path="url(#SVGID_14_)" fill="none" stroke="#000000" stroke-width="2" x1="268" y1="43" x2="342" y2="43"/>
</g>
<g>
	<defs>
		<rect id="SVGID_15_" x="267.314" y="47.08" width="75.805" height="4"/>
	</defs>
	<clipPath id="SVGID_16_">
		<use xlink:href="#SVGID_15_"  overflow="visible"/>
	</clipPath>
	<line clip-path="url(#SVGID_16_)" fill="none" stroke="#000000" stroke-width="2" x1="268" y1="49" x2="342" y2="49"/>
</g>
<g>
	<defs>
		<rect id="SVGID_17_" x="267.314" y="52.909" width="75.805" height="4"/>
	</defs>
	<clipPath id="SVGID_18_">
		<use xlink:href="#SVGID_17_"  overflow="visible"/>
	</clipPath>
	<line clip-path="url(#SVGID_18_)" fill="none" stroke="#000000" stroke-width="2" x1="268" y1="55" x2="342" y2="55"/>
</g>
<g>
	<defs>
		<rect id="SVGID_19_" x="267.314" y="64.567" width="75.805" height="4"/>
	</defs>
	<clipPath id="SVGID_20_">
		<use xlink:href="#SVGID_19_"  overflow="visible"/>
	</clipPath>
	<line clip-path="url(#SVGID_20_)" fill="none" stroke="#70BF41" stroke-width="2" x1="268" y1="67" x2="342" y2="67"/>
</g>
<g>
	<defs>
		<rect id="SVGID_21_" x="155.796" y="57.292" width="75.806" height="4"/>
	</defs>
	<clipPath id="SVGID_22_">
		<use xlink:href="#SVGID_21_"  overflow="visible"/>
	</clipPath>
	<line clip-path="url(#SVGID_22_)" fill="none" stroke="#70BF41" stroke-width="2" x1="157" y1="59" x2="231" y2="59"/>
</g>
<polygon fill="#45BEEE" points="203.427,125.067 207.724,139.122 237.382,98.616 190.144,81.62 194.44,95.675 153.541,108.179 
	162.527,137.571 "/>
<g>
	<defs>
		<rect id="SVGID_23_" x="253.198" y="201.382" width="104" height="131.216"/>
	</defs>
	<clipPath id="SVGID_24_">
		<use xlink:href="#SVGID_23_"  overflow="visible"/>
	</clipPath>
	<rect x="255" y="203" clip-path="url(#SVGID_24_)" fill="#DCDEE0" width="100" height="128"/>
	<rect x="255" y="203" clip-path="url(#SVGID_24_)" fill="none" stroke="#85888D" stroke-width="2" width="100" height="128"/>
</g>
<g>
	<defs>
		<rect id="SVGID_25_" x="267.314" y="221.229" width="75.805" height="4"/>
	</defs>
	<clipPath id="SVGID_26_">
		<use xlink:href="#SVGID_25_"  overflow="visible"/>
	</clipPath>
	<line clip-path="url(#SVGID_26_)" fill="none" stroke="#000000" stroke-width="2" x1="268" y1="223" x2="342" y2="223"/>
</g>
<g>
	<defs>
		<rect id="SVGID_27_" x="267.314" y="227.059" width="75.805" height="4"/>
	</defs>
	<clipPath id="SVGID_28_">
		<use xlink:href="#SVGID_27_"  overflow="visible"/>
	</clipPath>
	<line clip-path="url(#SVGID_28_)" fill="none" stroke="#000000" stroke-width="2" x1="268" y1="229" x2="342" y2="229"/>
</g>
<g>
	<defs>
		<rect id="SVGID_29_" x="267.314" y="232.888" width="75.805" height="4"/>
	</defs>
	<clipPath id="SVGID_30_">
		<use xlink:href="#SVGID_29_"  overflow="visible"/>
	</clipPath>
	<line clip-path="url(#SVGID_30_)" fill="none" stroke="#000000" stroke-width="2" x1="268" y1="235" x2="342" y2="235"/>
</g>
<g>
	<defs>
		<rect id="SVGID_31_" x="267.314" y="244.547" width="75.805" height="4"/>
	</defs>
	<clipPath id="SVGID_32_">
		<use xlink:href="#SVGID_31_"  overflow="visible"/>
	</clipPath>
	<line clip-path="url(#SVGID_32_)" fill="none" stroke="#C82506" stroke-width="2" x1="268" y1="247" x2="342" y2="247"/>
</g>
<polygon fill="#45BEEE" points="194.44,238.713 190.144,252.767 237.382,235.771 207.724,195.266 203.427,209.32 162.527,196.815 
	153.541,226.208 "/>
<g>
	<defs>
		<rect id="SVGID_33_" x="267.314" y="250.547" width="75.805" height="4"/>
	</defs>
	<clipPath id="SVGID_34_">
		<use xlink:href="#SVGID_33_"  overflow="visible"/>
	</clipPath>
	<line clip-path="url(#SVGID_34_)" fill="none" stroke="#C82506" stroke-width="2" x1="268" y1="253" x2="342" y2="253"/>
</g>
<g>
	<defs>
		<rect id="SVGID_35_" x="156.559" y="265.692" width="75.806" height="4"/>
	</defs>
	<clipPath id="SVGID_36_">
		<use xlink:href="#SVGID_35_"  overflow="visible"/>
	</clipPath>
	<line clip-path="url(#SVGID_36_)" fill="none" stroke="#C82506" stroke-width="2" x1="158" y1="268" x2="231" y2="268"/>
</g>
<g>
	<defs>
		<rect id="SVGID_37_" x="156.559" y="271.692" width="75.806" height="4"/>
	</defs>
	<clipPath id="SVGID_38_">
		<use xlink:href="#SVGID_37_"  overflow="visible"/>
	</clipPath>
	<line clip-path="url(#SVGID_38_)" fill="none" stroke="#C82506" stroke-width="2" x1="158" y1="274" x2="231" y2="274"/>
</g>
</svg>
